<svg xmlns="http://www.w3.org/2000/svg" width="148.79999999999998" height="35" viewBox="0 0 148.79999999999998 35"><rect class="svg__rect" x="0" y="0" width="90.97" height="35" fill="#31C4F3"/><rect class="svg__rect" x="88.97" y="0" width="59.829999999999984" height="35" fill="#389AD5"/><path class="svg__text" d="M15.70 22L14.22 22L14.22 13.47L19.64 13.47L19.64 14.66L15.70 14.66L15.70 17.20L19.13 17.20L19.13 18.38L15.70 18.38L15.70 22ZM25.36 22L23.89 22L23.89 13.47L25.36 13.47L25.36 22ZM31.85 14.66L29.22 14.66L29.22 13.47L35.98 13.47L35.98 14.66L33.32 14.66L33.32 22L31.85 22L31.85 14.66ZM41.22 22L39.74 22L39.74 13.47L41.22 13.47L45.04 19.54L45.04 13.47L46.51 13.47L46.51 22L45.03 22L41.22 15.95L41.22 22ZM56.83 22L51.25 22L51.25 13.47L56.79 13.47L56.79 14.66L52.73 14.66L52.73 17.02L56.23 17.02L56.23 18.19L52.73 18.19L52.73 20.82L56.83 20.82L56.83 22ZM60.59 19.42L60.59 19.42L62.07 19.42Q62.07 20.15 62.55 20.55Q63.03 20.95 63.93 20.95L63.93 20.95Q64.70 20.95 65.09 20.63Q65.48 20.32 65.48 19.80L65.48 19.80Q65.48 19.24 65.09 18.94Q64.69 18.63 63.66 18.32Q62.63 18.01 62.02 17.63L62.02 17.63Q60.85 16.90 60.85 15.72L60.85 15.72Q60.85 14.69 61.69 14.02Q62.53 13.35 63.88 13.35L63.88 13.35Q64.77 13.35 65.46 13.68Q66.16 14.01 66.56 14.61Q66.96 15.22 66.96 15.96L66.96 15.96L65.48 15.96Q65.48 15.29 65.06 14.91Q64.64 14.54 63.86 14.54L63.86 14.54Q63.14 14.54 62.74 14.85Q62.33 15.16 62.33 15.71L62.33 15.71Q62.33 16.18 62.77 16.50Q63.20 16.81 64.20 17.10Q65.19 17.40 65.80 17.78Q66.40 18.16 66.68 18.65Q66.96 19.13 66.96 19.79L66.96 19.79Q66.96 20.86 66.15 21.49Q65.33 22.12 63.93 22.12L63.93 22.12Q63.00 22.12 62.23 21.77Q61.45 21.43 61.02 20.83Q60.59 20.22 60.59 19.42ZM70.82 19.42L70.82 19.42L72.30 19.42Q72.30 20.15 72.78 20.55Q73.26 20.95 74.16 20.95L74.16 20.95Q74.93 20.95 75.32 20.63Q75.71 20.32 75.71 19.80L75.71 19.80Q75.71 19.24 75.32 18.94Q74.92 18.63 73.89 18.32Q72.86 18.01 72.25 17.63L72.25 17.63Q71.08 16.90 71.08 15.72L71.08 15.72Q71.08 14.69 71.92 14.02Q72.76 13.35 74.11 13.35L74.11 13.35Q75.00 13.35 75.69 13.68Q76.39 14.01 76.79 14.61Q77.19 15.22 77.19 15.96L77.19 15.96L75.71 15.96Q75.71 15.29 75.29 14.91Q74.87 14.54 74.09 14.54L74.09 14.54Q73.37 14.54 72.97 14.85Q72.56 15.16 72.56 15.71L72.56 15.71Q72.56 16.18 73.00 16.50Q73.43 16.81 74.43 17.10Q75.42 17.40 76.03 17.78Q76.63 18.16 76.91 18.65Q77.19 19.13 77.19 19.79L77.19 19.79Q77.19 20.86 76.38 21.49Q75.56 22.12 74.16 22.12L74.16 22.12Q73.23 22.12 72.46 21.77Q71.68 21.43 71.25 20.83Q70.82 20.22 70.82 19.42Z" fill="#FFFFFF"/><path class="svg__text" d="M104.58 22L102.15 22L105.86 13.60L108.20 13.60L111.92 22L109.45 22L108.79 20.37L105.24 20.37L104.58 22ZM107.01 15.93L105.93 18.61L108.09 18.61L107.01 15.93ZM118.45 22L116.07 22L116.07 13.60L119.92 13.60Q121.05 13.60 121.89 13.98Q122.73 14.35 123.19 15.06Q123.65 15.76 123.65 16.71L123.65 16.71Q123.65 17.66 123.19 18.35Q122.73 19.05 121.89 19.42Q121.05 19.80 119.92 19.80L119.92 19.80L118.45 19.80L118.45 22ZM118.45 15.47L118.45 17.93L119.77 17.93Q120.50 17.93 120.87 17.61Q121.25 17.29 121.25 16.71L121.25 16.71Q121.25 16.12 120.87 15.80Q120.50 15.47 119.77 15.47L119.77 15.47L118.45 15.47ZM130.78 22L128.40 22L128.40 13.60L132.24 13.60Q133.38 13.60 134.22 13.98Q135.06 14.35 135.52 15.06Q135.98 15.76 135.98 16.71L135.98 16.71Q135.98 17.66 135.52 18.35Q135.06 19.05 134.22 19.42Q133.38 19.80 132.24 19.80L132.24 19.80L130.78 19.80L130.78 22ZM130.78 15.47L130.78 17.93L132.10 17.93Q132.83 17.93 133.20 17.61Q133.57 17.29 133.57 16.71L133.57 16.71Q133.57 16.12 133.20 15.80Q132.83 15.47 132.10 15.47L132.10 15.47L130.78 15.47Z" fill="#FFFFFF" x="101.97"/></svg>